<svg xmlns="http://www.w3.org/2000/svg" viewBox="0 0 700 700" role="img" aria-labelledby="title">
  <title id="title">Assuromieux Paris — logo empilé</title>
  <svg x="195" y="64" width="310" height="310" viewBox="0 0 512 512">
    <rect width="512" height="512" rx="88" fill="#071c33"/>
    <path d="M62 404 132 108h38l-58 296H62Z" fill="#fff"/>
    <path d="m152 108h38l70 296h-50l-58-296Z" fill="#fff"/>
    <path d="M106 288h102l12 44H96l10-44Z" fill="#c99a46"/>
    <path fill="#fff" fill-rule="evenodd" d="M276 108h106c46 0 76 33 76 84 0 52-30 84-76 84h-52v128h-54V108Zm54 52v64h48c18 0 28-12 28-32s-10-32-28-32h-48Z"/>
  </svg>
  <text x="350" y="472" text-anchor="middle" fill="#0b2747" font-family="Inter, Avenir, 'Avenir Next', 'Segoe UI', Arial, sans-serif" font-size="65" font-weight="750" letter-spacing="-1.5">
    <tspan>Assuromieux</tspan><tspan dx="14" fill="#8a6222">Paris</tspan>
  </text>
  <path d="M270 520h160" stroke="#c99a46" stroke-width="6" stroke-linecap="round"/>
</svg>
