<svg xmlns="http://www.w3.org/2000/svg" viewBox="0 0 1600 480" role="img" aria-label="Assuromieux Paris - direction E"><svg x="56" y="58" width="250" height="250" viewBox="0 0 512 512">
          <rect width="512" height="512" rx="96" fill="#FFFFFF"/>
          <path d="M102 344 186 168h37l83 176h-47l-18-43h-75l-18 43h-46Zm79-80h45l-22-55-23 55Z" fill="#071C33"/>
          <path d="M329 167v178" stroke="#C99A46" stroke-width="13"/>
          <path d="M371 168h26c45 0 72 25 72 66s-27 66-72 66h-9v45h-35V168h18Zm17 33v66h9c23 0 36-11 36-33s-13-33-36-33h-9Z" fill="#071C33"/>
        </svg><text x="370" y="190" fill="#FFFFFF" font-family="Avenir Next, Arial, sans-serif" font-size="98" font-weight="700" letter-spacing="-2">ASSUROMIEUX</text><text x="374" y="258" fill="#F4E3BF" font-family="Avenir Next, Arial, sans-serif" font-size="30" font-weight="650" letter-spacing="12">PARIS</text><text x="374" y="315" fill="#FFFFFF" opacity=".72" font-family="Avenir Next, Arial, sans-serif" font-size="22" letter-spacing="3">CABINET DE CONSEIL &amp; COURTAGE</text></svg>
