<svg xmlns="http://www.w3.org/2000/svg" viewBox="0 0 900 900" role="img" aria-label="Assuromieux Paris - direction E"><svg x="320.0" y="58" width="260" height="260" viewBox="0 0 512 512">
          <rect width="512" height="512" rx="96" fill="#071C33"/>
          <path d="M102 344 186 168h37l83 176h-47l-18-43h-75l-18 43h-46Zm79-80h45l-22-55-23 55Z" fill="#FFFFFF"/>
          <path d="M329 167v178" stroke="#C99A46" stroke-width="13"/>
          <path d="M371 168h26c45 0 72 25 72 66s-27 66-72 66h-9v45h-35V168h18Zm17 33v66h9c23 0 36-11 36-33s-13-33-36-33h-9Z" fill="#FFFFFF"/>
        </svg><text x="450" y="432" text-anchor="middle" fill="#071C33" font-family="Avenir Next, Arial, sans-serif" font-size="70" font-weight="700" letter-spacing="-2">ASSUROMIEUX</text><text x="450" y="500" text-anchor="middle" fill="#8A6222" font-family="Avenir Next, Arial, sans-serif" font-size="31" font-weight="600" letter-spacing="13">PARIS</text><path d="M300 548h300" stroke="#8A6222" stroke-width="3"/><text x="450" y="610" text-anchor="middle" fill="#071C33" opacity=".74" font-family="Avenir Next, Arial, sans-serif" font-size="21" letter-spacing="3">CABINET DE CONSEIL &amp; COURTAGE</text></svg>
